<svg width="23" height="23" viewBox="0 0 23 23" fill="none" xmlns="http://www.w3.org/2000/svg">
<path d="M10.3593 0.0136716C8.21918 0.242992 6.2589 1.01638 4.50993 2.32486C3.93893 2.75202 2.76546 3.9256 2.33833 4.49665C1.16935 6.05693 0.449982 7.72512 0.126266 9.62263C0.00487196 10.3241 -0.0400887 11.9428 0.0408405 12.6757C0.24766 14.6002 0.877109 16.3404 1.92919 17.9006L2.16298 18.2469L1.43912 20.3872C1.04346 21.5653 0.724243 22.532 0.728739 22.5365C0.733235 22.5455 1.70888 22.2397 2.89584 21.8575C4.0828 21.4753 5.09442 21.1606 5.13938 21.1606C5.18434 21.1606 5.32821 21.2235 5.4541 21.3045C6.89285 22.2037 8.55639 22.7703 10.3233 22.9592C11.0562 23.0401 12.6748 22.9951 13.3762 22.8737C15.2735 22.55 16.946 21.8305 18.5017 20.6615C19.0727 20.2343 20.2462 19.0607 20.6733 18.4897C21.8602 16.9024 22.5841 15.1982 22.9123 13.2243C23.0292 12.5139 23.0292 10.4725 22.9123 9.76202C22.5841 7.78807 21.8602 6.08391 20.6733 4.49665C20.2462 3.9256 19.0727 2.75202 18.5017 2.32486C16.946 1.16027 15.2825 0.440836 13.3762 0.112594C12.9401 0.0361539 12.6028 0.0136716 11.6857 0.00467866C11.0562 -0.00431428 10.4582 0.00018219 10.3593 0.0136716ZM7.88648 5.35098C8.00337 5.40044 8.07081 5.48138 8.17422 5.68822C8.435 6.20081 9.39266 8.55696 9.39266 8.68287C9.39266 8.8942 9.21731 9.17298 8.78119 9.67209C8.55189 9.92839 8.34058 10.1847 8.3136 10.2297C8.19221 10.459 8.30911 10.7647 8.75871 11.4032C9.74335 12.8016 10.8674 13.7819 12.2836 14.4608C13.4076 15.0049 13.547 14.9689 14.2709 13.9662C14.7924 13.2423 14.9993 13.0714 15.3005 13.1389C15.6062 13.2063 18.2274 14.4833 18.3398 14.6227C18.5017 14.816 18.3578 15.8772 18.097 16.3853C17.7239 17.1227 16.5684 17.8017 15.5163 17.9006C14.4238 18.0085 11.8205 17.1003 10.2784 16.0751C8.71825 15.0364 7.11315 13.3367 5.86325 11.4077C5.2338 10.4365 4.85163 9.31237 4.85163 8.43556C4.85163 7.4913 5.14388 6.69093 5.75084 5.97599C6.0296 5.63875 6.29037 5.4544 6.61859 5.35548C6.87936 5.27004 7.68865 5.27004 7.88648 5.35098Z" fill="#262442"/>
</svg>
