<svg width="23" height="23" viewBox="0 0 23 23" fill="none" xmlns="http://www.w3.org/2000/svg">
<path d="M10.0143 0.0663242C5.42206 0.65497 1.60722 3.98015 0.376043 8.46465C0.110936 9.43974 0.0300558 10.0104 0.0075891 11.1742C-0.0193709 12.3201 0.0210691 12.8862 0.200803 13.7715C0.793923 16.7731 2.60025 19.4422 5.18391 21.1408C6.67121 22.1159 8.30229 22.7135 10.1041 22.9382C10.7871 23.0235 12.225 23.0191 12.9349 22.9337C16.2959 22.5158 19.2975 20.633 21.1712 17.7662C22.1148 16.3238 22.7169 14.6657 22.9326 12.9357C23.0225 12.2077 23.0225 10.7878 22.9326 10.0598C22.5192 6.71668 20.6455 3.71953 17.8102 1.85473C16.3319 0.884138 14.6873 0.282011 12.9349 0.0618305C12.2474 -0.0235462 10.6838 -0.0190525 10.0143 0.0663242ZM16.9744 7.09414C17.1272 7.25141 17.1811 7.4626 17.1407 7.73671C17.0463 8.31637 15.213 16.8495 15.1501 16.9933C15.0558 17.209 14.8536 17.3842 14.6963 17.3842C14.4716 17.3797 14.2155 17.218 12.8316 16.1979C12.0677 15.6363 11.4162 15.1644 11.3802 15.151C11.3398 15.1375 11.0342 15.4026 10.549 15.8609C9.74016 16.6383 9.72219 16.6518 9.51999 16.7102C9.39867 16.7461 9.39417 16.7417 9.41215 16.5799C9.42113 16.49 9.46157 15.9418 9.49752 15.3622C9.53347 14.7825 9.5784 14.2028 9.59188 14.0725L9.61435 13.8389L12.3103 11.4079C14.0268 9.85314 15.0019 8.94545 15.0019 8.89153C15.0019 8.7747 14.8581 8.73875 14.6783 8.81514C14.5975 8.85109 13.0517 9.8127 11.2454 10.9495L7.9608 13.0166L6.81949 12.6616C6.19042 12.4639 5.51193 12.2527 5.31422 12.1898C4.71661 12.01 4.56383 11.7719 4.86489 11.5067C4.95475 11.4304 5.27827 11.2731 5.66021 11.1248C6.01518 10.9855 8.58088 9.99244 11.3623 8.91849C15.3119 7.3952 16.4622 6.96383 16.6284 6.96383C16.8037 6.95933 16.8576 6.9818 16.9744 7.09414Z" fill="#262442"/>
</svg>
