<svg width="23" height="23" viewBox="0 0 23 23" fill="none" xmlns="http://www.w3.org/2000/svg">
<path d="M10.3706 0.0269394C8.18993 0.247149 6.11266 1.07855 4.3906 2.41329C3.86453 2.82225 2.96978 3.70308 2.53364 4.24237C1.25221 5.82878 0.433889 7.68033 0.087677 9.77007C-0.0292257 10.4801 -0.0292257 12.5204 0.087677 13.2305C0.514821 15.8056 1.63439 17.9807 3.45088 19.7469C5.29884 21.5445 7.48852 22.5961 10.1008 22.9422C10.8832 23.0411 12.5873 23.0096 13.3651 22.8748C14.5431 22.6725 15.5458 22.349 16.5979 21.8321C17.713 21.2839 18.6123 20.6502 19.5385 19.7469C21.3325 17.9987 22.4476 15.873 22.8747 13.3698C23.0096 12.5879 23.0411 10.9385 22.9422 10.1071C22.5285 6.73208 20.6625 3.73005 17.8119 1.85602C16.3327 0.885305 14.687 0.2831 12.9335 0.062891C12.4254 -2.47955e-05 10.8382 -0.0224953 10.3706 0.0269394ZM12.2366 7.8601C12.4434 7.92301 12.5558 8.0084 12.6592 8.19715C12.7222 8.314 12.7312 8.52522 12.7312 9.85995C12.7312 11.3205 12.7356 11.3969 12.8211 11.5452C12.8885 11.6576 12.9515 11.707 13.0459 11.716C13.3876 11.7565 14.4892 10.224 15.0063 8.98361C15.2625 8.37691 15.3255 8.26007 15.4559 8.19715C15.6402 8.09828 18.2121 8.09828 18.4414 8.19266C18.7157 8.3095 18.7022 8.6151 18.3919 9.23079C18.2166 9.57683 18.0952 9.7521 17.2004 10.9655C16.8632 11.4239 16.544 11.8688 16.49 11.9542C16.3461 12.1834 16.2967 12.4126 16.3506 12.5609C16.3776 12.6283 16.7508 13.0418 17.178 13.4732C17.8884 14.1967 18.4099 14.8214 18.5808 15.1495C18.6213 15.2214 18.6527 15.3607 18.6527 15.4596C18.6527 15.6798 18.4864 15.882 18.2436 15.9494C18.0188 16.0123 16.0539 16.0078 15.7571 15.9449C15.3345 15.855 15.1861 15.7427 14.3723 14.9158C13.6978 14.2327 13.5585 14.1113 13.4101 14.0844C13.0684 14.017 12.911 14.2641 12.7761 15.0955C12.7312 15.3562 12.6637 15.6213 12.6277 15.6888C12.5108 15.8865 12.286 15.9494 11.6565 15.9494C10.1188 15.9494 8.91383 15.4326 7.79876 14.3001C6.98044 13.4732 6.02723 12.0261 5.17744 10.3363C4.34563 8.66453 4.24222 8.37242 4.44005 8.19715C4.52548 8.11626 4.61541 8.11176 5.7035 8.12075C6.96245 8.13423 7.08385 8.15221 7.2682 8.36792C7.32215 8.43084 7.45255 8.68251 7.56046 8.92519C7.91116 9.73412 8.32032 10.4532 8.8239 11.1453C9.40392 11.9317 9.70517 11.9677 9.85355 11.2666C9.96146 10.7498 9.93898 9.03754 9.82207 8.82183C9.71416 8.62409 9.49834 8.45331 9.314 8.41736C9.08469 8.37691 9.03073 8.28703 9.14314 8.13873C9.26903 7.96795 9.48036 7.8556 9.75463 7.81066C10.0874 7.76123 12.0162 7.79718 12.2366 7.8601Z" fill="#262442"/>
</svg>
