<svg width="25" height="25" viewBox="0 0 25 25" fill="none" xmlns="http://www.w3.org/2000/svg">
<path d="M10.8851 0.0720901C5.89355 0.711924 1.74698 4.32625 0.408742 9.20071C0.120582 10.2606 0.0326693 10.8809 0.00824902 12.1459C-0.0210554 13.3914 0.0229012 14.0068 0.218264 14.969C0.86296 18.2316 2.82635 21.1329 5.63469 22.9791C7.25131 24.039 9.02423 24.6886 10.9827 24.9328C11.7251 25.0256 13.288 25.0207 14.0597 24.9279C17.713 24.4737 20.9755 22.4272 23.0122 19.3111C24.0378 17.7432 24.6923 15.9409 24.9267 14.0605C25.0244 13.2693 25.0244 11.7259 24.9267 10.9346C24.4774 7.30074 22.4408 4.04296 19.3589 2.01601C17.7521 0.96102 15.9645 0.306532 14.0597 0.0672054C13.3124 -0.0255947 11.6128 -0.02071 10.8851 0.0720901ZM18.4505 7.71102C18.6165 7.88197 18.6751 8.11152 18.6312 8.40946C18.5286 9.03953 16.5359 18.3147 16.4675 18.471C16.365 18.7054 16.1452 18.8959 15.9743 18.8959C15.73 18.891 15.4517 18.7152 13.9474 17.6065C13.1171 16.9959 12.4089 16.4831 12.3698 16.4684C12.3259 16.4538 11.9937 16.7419 11.4663 17.2401C10.5871 18.0851 10.5676 18.0998 10.3478 18.1633C10.2159 18.2023 10.2111 18.1974 10.2306 18.0216C10.2404 17.9239 10.2843 17.3281 10.3234 16.698C10.3625 16.0679 10.4113 15.4379 10.426 15.2962L10.4504 15.0422L13.3808 12.3999C15.2465 10.7099 16.3064 9.72332 16.3064 9.66471C16.3064 9.53772 16.1501 9.49864 15.9547 9.58168C15.8668 9.62075 14.1867 10.666 12.2233 11.9017L8.65304 14.1484L7.41249 13.7626C6.72872 13.5477 5.99123 13.3181 5.77633 13.2497C5.12675 13.0544 4.96069 12.7955 5.28792 12.5073C5.3856 12.4243 5.73726 12.2533 6.1524 12.0922C6.53824 11.9408 9.32704 10.8613 12.3503 9.69401C16.6434 8.03826 17.8937 7.56937 18.0744 7.56937C18.2649 7.56449 18.3235 7.58891 18.4505 7.71102Z" fill="white" fill-opacity="0.7"/>
</svg>
