<svg width="25" height="25" viewBox="0 0 25 25" fill="none" xmlns="http://www.w3.org/2000/svg">
<path d="M11.2724 0.0292797C8.9021 0.268639 6.6442 1.17234 4.77239 2.62314C4.20058 3.06766 3.22802 4.02509 2.75396 4.61127C1.3611 6.33563 0.471618 8.34819 0.0953011 10.6196C-0.031767 11.3915 -0.031767 13.6092 0.0953011 14.381C0.559589 17.18 1.77651 19.5443 3.75095 21.464C5.75961 23.418 8.13969 24.561 10.9792 24.9372C11.8296 25.0446 13.6818 25.0104 14.5273 24.8639C15.8078 24.6441 16.8976 24.2924 18.0412 23.7306C19.2533 23.1346 20.2307 22.4459 21.2375 21.464C23.1875 19.5638 24.3995 17.2533 24.8638 14.5324C25.0104 13.6824 25.0446 11.8897 24.9371 10.986C24.4875 7.31748 22.4593 4.0544 19.3608 2.01742C17.7529 0.962288 15.9642 0.307716 14.0581 0.0683594C13.5059 -2.86102e-05 11.7807 -0.0244541 11.2724 0.0292797ZM13.3006 8.54358C13.5254 8.61197 13.6476 8.70478 13.76 8.90994C13.8284 9.03695 13.8382 9.26654 13.8382 10.7173C13.8382 12.3049 13.8431 12.388 13.936 12.5492C14.0093 12.6713 14.0777 12.725 14.1803 12.7348C14.5517 12.7788 15.7491 11.113 16.3112 9.7648C16.5897 9.10534 16.6581 8.97833 16.7999 8.90994C17.0003 8.80248 19.7957 8.80248 20.045 8.90506C20.3431 9.03207 20.3285 9.36424 19.9912 10.0335C19.8006 10.4096 19.6687 10.6001 18.6961 11.919C18.3296 12.4173 17.9826 12.9009 17.9239 12.9937C17.7675 13.2428 17.7138 13.4919 17.7724 13.6531C17.8018 13.7264 18.2074 14.1758 18.6717 14.6448C19.4439 15.4312 20.0108 16.1102 20.1965 16.4668C20.2405 16.545 20.2747 16.6964 20.2747 16.8039C20.2747 17.0432 20.0939 17.263 19.83 17.3363C19.5856 17.4047 17.4499 17.3998 17.1273 17.3314C16.6679 17.2337 16.5066 17.1116 15.6221 16.2128C14.889 15.4703 14.7375 15.3384 14.5762 15.3091C14.2048 15.2358 14.0337 15.5045 13.8871 16.4082C13.8382 16.6915 13.7649 16.9797 13.7258 17.053C13.5987 17.2679 13.3544 17.3363 12.6702 17.3363C10.9987 17.3363 9.68895 16.7746 8.47691 15.5436C7.58743 14.6448 6.55134 13.0718 5.62765 11.2351C4.72351 9.41797 4.61111 9.10045 4.82615 8.90994C4.919 8.82202 5.01675 8.81713 6.19946 8.8269C7.56789 8.84156 7.69984 8.8611 7.90022 9.09557C7.95886 9.16396 8.10059 9.43751 8.21789 9.70129C8.59909 10.5806 9.04383 11.3621 9.5912 12.1144C10.2217 12.9693 10.5491 13.0083 10.7104 12.2463C10.8277 11.6845 10.8032 9.82341 10.6762 9.58894C10.5589 9.37401 10.3243 9.18838 10.1239 9.1493C9.87466 9.10534 9.81601 9.00764 9.9382 8.84644C10.075 8.66082 10.3047 8.5387 10.6029 8.48985C10.9645 8.43612 13.0611 8.47519 13.3006 8.54358Z" fill="white" fill-opacity="0.7"/>
</svg>
