<svg width="25" height="25" viewBox="0 0 25 25" fill="none" xmlns="http://www.w3.org/2000/svg">
<path d="M11.2801 0.0292806C8.9111 0.268638 6.65446 1.17234 4.78369 2.62314C4.21221 3.06766 3.24019 4.02509 2.76639 4.61127C1.40362 6.30143 0.514637 8.27491 0.133645 10.4682C-0.00800516 11.3084 -0.0470812 13.1598 0.0652624 14.0146C0.275296 15.5875 0.661172 16.8527 1.34989 18.2058C1.92626 19.344 2.60032 20.277 3.53814 21.2393C5.56033 23.3154 8.04654 24.5512 10.987 24.9372C11.8369 25.0446 13.6881 25.0104 14.5332 24.8639C15.8129 24.6441 16.9021 24.2924 18.0451 23.7306C19.2565 23.1346 20.2334 22.4459 21.2396 21.464C23.1787 19.5736 24.3999 17.2435 24.8639 14.5324C25.0104 13.6824 25.0446 11.8897 24.9372 10.986C24.4878 7.31748 22.4607 4.0544 19.3639 2.01742C17.7569 0.962288 15.9692 0.307717 14.0642 0.0683594C13.5123 -2.85552e-05 11.7881 -0.0244528 11.2801 0.0292806ZM17.0243 7.86459C17.9425 8.03067 18.729 8.77317 18.9732 9.69152C19.0806 10.1214 19.0806 14.8792 18.9732 15.3091C18.729 16.2275 17.9425 16.97 17.0243 17.136C16.653 17.2044 8.3738 17.2093 8.027 17.1458C7.13802 16.9748 6.43954 16.3984 6.09762 15.5436L5.9804 15.2603L5.96574 12.6517C5.95597 10.8688 5.97063 9.96019 6.00482 9.77945C6.19531 8.86598 7.03056 8.04044 7.9342 7.86947C8.29077 7.80108 16.653 7.7962 17.0243 7.86459Z" fill="white" fill-opacity="0.7"/>
<path d="M10.7422 12.5002C10.7422 13.6335 10.7568 14.5469 10.7813 14.5372C11.0548 14.3955 14.259 12.5197 14.259 12.5002C14.259 12.4806 11.299 10.7416 10.9034 10.5316L10.7422 10.4485V12.5002Z" fill="white" fill-opacity="0.7"/>
</svg>
