<svg width="14" height="14" viewBox="0 0 14 14" fill="none" xmlns="http://www.w3.org/2000/svg">
<path d="M6.65777 0.00809636C2.93026 0.184145 -0.0112754 3.26335 3.24928e-05 6.96492C0.00347549 8.09233 0.277869 9.15645 0.761913 10.0967L0.0187327 13.675C-0.0214693 13.8686 0.154528 14.0381 0.348382 13.9925L3.88329 13.1618C4.79146 13.6105 5.81153 13.8697 6.89112 13.8861C10.701 13.9438 13.8778 10.9431 13.9965 7.16541C14.1238 3.116 10.7545 -0.18543 6.65777 0.00809636ZM10.8757 10.7878C9.84044 11.8147 8.46402 12.3802 7.00001 12.3802C6.14277 12.3802 5.32206 12.1894 4.56058 11.8131L4.0683 11.5699L1.90104 12.0792L2.35723 9.88258L2.11471 9.41148C1.7194 8.64357 1.51897 7.81319 1.51897 6.94342C1.51897 5.49121 2.08909 4.12595 3.12431 3.09905C4.15029 2.08137 5.54916 1.50665 7.00011 1.50665C8.46412 1.50668 9.84048 2.07219 10.8757 3.09902C11.9109 4.12588 12.4811 5.49114 12.4811 6.94332C12.4811 8.38258 11.9016 9.77014 10.8757 10.7878Z" fill="white"/>
<path d="M10.3988 8.45033L9.0429 8.06415C8.86464 8.01339 8.67267 8.06355 8.54278 8.19483L8.21121 8.52992C8.0714 8.67121 7.85925 8.71662 7.6742 8.64235C7.03279 8.38488 5.68355 7.19493 5.33898 6.59972C5.23957 6.42802 5.25601 6.21337 5.37806 6.0567L5.66755 5.68522C5.78096 5.53968 5.80489 5.34421 5.72989 5.17596L5.15944 3.89618C5.0228 3.58965 4.6279 3.50042 4.36991 3.71685C3.99148 4.03432 3.54248 4.51677 3.4879 5.05124C3.39166 5.99356 3.79908 7.18143 5.33975 8.60777C7.11965 10.2556 8.54498 10.4733 9.473 10.2503C9.99937 10.1238 10.42 9.61685 10.6855 9.20174C10.8665 8.91871 10.7236 8.54284 10.3988 8.45033Z" fill="white"/>
</svg>
