<svg width="14" height="14" viewBox="0 0 14 14" fill="none" xmlns="http://www.w3.org/2000/svg">
<path d="M6.09563 0.04037C3.30039 0.398677 0.978306 2.4227 0.228896 5.1524C0.0675262 5.74593 0.0182948 6.09329 0.00461945 6.8017C-0.011791 7.49917 0.0128247 7.8438 0.122228 8.38263C0.483258 10.2097 1.58276 11.8344 3.15543 12.8683C4.06074 13.4618 5.05357 13.8256 6.15033 13.9624C6.56607 14.0143 7.44129 14.0116 7.87343 13.9596C9.91927 13.7053 11.7463 12.5592 12.8868 10.8142C13.4612 9.9362 13.8277 8.92692 13.959 7.87389C14.0137 7.43079 14.0137 6.56648 13.959 6.12338C13.7073 4.08842 12.5668 2.26406 10.841 1.12897C9.94115 0.538171 8.94011 0.171659 7.87343 0.0376348C7.45496 -0.0143328 6.50316 -0.0115976 6.09563 0.04037ZM10.3323 4.31817C10.4253 4.4139 10.4581 4.54245 10.4335 4.7093C10.376 5.06213 9.26011 10.2562 9.22182 10.3437C9.16439 10.475 9.04131 10.5817 8.94558 10.5817C8.80883 10.579 8.65293 10.4805 7.81052 9.85962C7.34556 9.51772 6.94898 9.23053 6.92709 9.22232C6.90248 9.21412 6.71649 9.37549 6.42111 9.65448C5.92879 10.1277 5.91785 10.1359 5.79477 10.1714C5.72093 10.1933 5.71819 10.1906 5.72913 10.0921C5.7346 10.0374 5.75922 9.70371 5.7811 9.35087C5.80298 8.99804 5.83033 8.6452 5.83854 8.56588L5.85221 8.42365L7.49326 6.94393C8.53805 5.99756 9.13157 5.44506 9.13157 5.41224C9.13157 5.34112 9.04404 5.31924 8.93464 5.36574C8.88541 5.38762 7.94454 5.97295 6.84504 6.66494L4.8457 7.92312L4.15099 7.70704C3.76808 7.58669 3.35509 7.45814 3.23474 7.41985C2.87098 7.31044 2.77799 7.16548 2.96124 7.0041C3.01594 6.9576 3.21286 6.86187 3.44534 6.77161C3.66142 6.68682 5.22314 6.08235 6.91615 5.42865C9.32029 4.50143 10.0205 4.23885 10.1217 4.23885C10.2283 4.23611 10.2612 4.24979 10.3323 4.31817Z" fill="white"/>
</svg>
