<svg width="14" height="14" viewBox="0 0 14 14" fill="none" xmlns="http://www.w3.org/2000/svg">
<path d="M6.31255 0.0163975C4.98518 0.150437 3.72075 0.656508 2.67254 1.46896C2.35232 1.71789 1.80769 2.25405 1.54222 2.58231C0.762213 3.54795 0.264106 4.67498 0.0533686 5.947C-0.0177895 6.37921 -0.0177895 7.62114 0.0533686 8.05335C0.31337 9.6208 0.994846 10.9448 2.10053 12.0199C3.22538 13.1141 4.55823 13.7542 6.14834 13.9648C6.62455 14.025 7.66182 14.0058 8.13529 13.9238C8.85235 13.8007 9.46267 13.6037 10.1031 13.2891C10.7818 12.9554 11.3292 12.5697 11.893 12.0199C12.985 10.9557 13.6637 9.66184 13.9237 8.13815C14.0058 7.66217 14.025 6.65824 13.9648 6.15216C13.713 4.09779 12.5772 2.27046 10.842 1.12975C9.94162 0.538881 8.93993 0.172322 7.87256 0.0382814C7.56329 -1.62125e-05 6.59718 -0.0136938 6.31255 0.0163975ZM7.44834 4.78441C7.57424 4.8227 7.64266 4.87468 7.70561 4.98957C7.74392 5.06069 7.7494 5.18926 7.7494 6.00171C7.7494 6.89076 7.75213 6.93726 7.80413 7.02753C7.84519 7.09592 7.8835 7.12601 7.94098 7.13148C8.14898 7.1561 8.81951 6.22329 9.13424 5.46829C9.29025 5.09899 9.32856 5.02787 9.40793 4.98957C9.52014 4.92939 11.0856 4.92939 11.2252 4.98683C11.3921 5.05796 11.3839 5.24397 11.1951 5.61874C11.0884 5.82937 11.0145 5.93606 10.4698 6.67465C10.2646 6.95367 10.0702 7.22449 10.0374 7.27646C9.94983 7.41597 9.91972 7.55549 9.95256 7.64576C9.96898 7.68679 10.1961 7.93846 10.4561 8.20107C10.8886 8.64149 11.206 9.02172 11.31 9.22142C11.3347 9.26519 11.3538 9.34999 11.3538 9.41017C11.3538 9.54421 11.2526 9.66731 11.1048 9.70834C10.9679 9.74664 9.77193 9.7439 9.5913 9.7056C9.33403 9.65089 9.24372 9.58251 8.74835 9.07917C8.33782 8.66337 8.25298 8.58951 8.16266 8.5731C7.95466 8.53207 7.85887 8.68252 7.77677 9.18859C7.7494 9.34725 7.70834 9.50865 7.68645 9.54968C7.61529 9.67004 7.47845 9.70834 7.09529 9.70834C6.15929 9.70834 5.42581 9.39375 4.74707 8.7044C4.24896 8.20107 3.66875 7.32023 3.15149 6.29168C2.64517 5.27406 2.58222 5.09626 2.70264 4.98957C2.75464 4.94033 2.80938 4.9376 3.4717 4.94307C4.23802 4.95127 4.31191 4.96221 4.42412 5.09352C4.45696 5.13182 4.53633 5.28501 4.60202 5.43272C4.81549 5.92512 5.06455 6.3628 5.37107 6.78407C5.72413 7.26279 5.9075 7.28467 5.99781 6.85793C6.0635 6.54334 6.04981 5.50111 5.97865 5.36981C5.91297 5.24944 5.7816 5.14549 5.66939 5.12361C5.52981 5.09899 5.49697 5.04428 5.56539 4.95401C5.64202 4.85006 5.77065 4.78167 5.9376 4.75432C6.14013 4.72422 7.31424 4.74611 7.44834 4.78441Z" fill="white"/>
</svg>
