<svg width="11" height="6" viewBox="0 0 11 6" fill="none" xmlns="http://www.w3.org/2000/svg">
<path d="M0.831628 0H10.1684C10.3335 0.000655882 10.4948 0.0476818 10.6317 0.135132C10.7687 0.222582 10.8752 0.346528 10.9377 0.491298C11.0003 0.636068 11.0162 0.795159 10.9833 0.948456C10.9504 1.10175 10.8702 1.24237 10.753 1.35253L6.09294 5.76604C6.01531 5.84017 5.92294 5.89902 5.82117 5.93917C5.7194 5.97933 5.61025 6 5.5 6C5.38975 6 5.2806 5.97933 5.17883 5.93917C5.07706 5.89902 4.98469 5.84017 4.90706 5.76604L0.247038 1.35253C0.129767 1.24237 0.0496192 1.10175 0.0167275 0.948456C-0.0161642 0.795159 -0.000322457 0.636068 0.0622501 0.491298C0.124823 0.346528 0.231316 0.222582 0.368263 0.135132C0.505211 0.0476818 0.666462 0.000655882 0.831628 0Z" fill="white" fill-opacity="0.5"/>
</svg>
