<svg width="10" height="23" viewBox="0 0 10 23" fill="white" xmlns="http://www.w3.org/2000/svg">
<path d="M0 21.565C0.00029565 21.1835 0.133945 20.8176 0.371564 20.548L6.85028 13.1873C7.04638 12.9646 7.20194 12.7001 7.30807 12.4091C7.4142 12.1181 7.46882 11.8061 7.46882 11.4911C7.46882 11.176 7.4142 10.8641 7.30807 10.573C7.20194 10.282 7.04638 10.0175 6.85028 9.79481L0.380008 2.43892C0.14927 2.16749 0.0215939 1.80396 0.02448 1.42663C0.0273661 1.04929 0.160583 0.68834 0.395439 0.421513C0.630294 0.154686 0.947997 0.00333335 1.28012 5.4403e-05C1.61224 -0.00322455 1.93221 0.141832 2.17111 0.403982L8.64139 7.75412C9.51139 8.74449 10 10.0866 10 11.4858C10 12.885 9.51139 14.2271 8.64139 15.2175L2.16267 22.5782C1.98577 22.7793 1.7604 22.9163 1.51501 22.9721C1.26961 23.0278 1.01518 22.9997 0.783821 22.8913C0.552464 22.7829 0.354548 22.5991 0.215049 22.3631C0.0755506 22.127 0.000719734 21.8493 0 21.565Z" />
</svg>
 