<svg width="14" height="14" viewBox="0 0 14 14" fill="none" xmlns="http://www.w3.org/2000/svg">
<path fill-rule="evenodd" clip-rule="evenodd" d="M0.640553 13.0943C0.300155 12.7256 0.311634 12.1389 0.666193 11.7838L12.015 0.418929C12.3695 0.0638674 12.9329 0.0749208 13.2733 0.443618C13.6137 0.812315 13.6022 1.39904 13.2477 1.7541L1.89888 13.119C1.54432 13.4741 0.980951 13.463 0.640553 13.0943Z" fill="#262442"/>
<path fill-rule="evenodd" clip-rule="evenodd" d="M13.274 13.0943C12.9336 13.463 12.3702 13.4741 12.0157 13.119L0.666883 1.75411C0.312325 1.39905 0.300845 0.812323 0.641243 0.443625C0.981641 0.0749279 1.54502 0.0638744 1.89957 0.418936L13.2484 11.7838C13.6029 12.1389 13.6144 12.7256 13.274 13.0943Z" fill="#262442"/>
</svg>
