<svg width="24" height="26" viewBox="0 0 24 26" fill="none" xmlns="http://www.w3.org/2000/svg">
<path fill-rule="evenodd" clip-rule="evenodd" d="M10.6201 0.509351C5.59421 1.1203 1.5567 4.9187 0.605922 9.93041C0.439951 10.8052 0.415937 11.4531 0.433631 14.578C0.45087 17.6303 0.452842 17.6825 0.567096 18.0828C0.817695 18.9609 1.25788 19.7154 1.88632 20.344C2.71506 21.1731 3.72762 21.6462 4.9465 21.7739C5.87079 21.8707 6.40809 21.7126 6.74554 21.2446C7.05519 20.8151 7.04978 20.9031 7.03426 16.5282L7.02015 12.5463L6.88583 12.2923C6.72688 11.9917 6.54701 11.8139 6.23655 11.6503C6.02994 11.5414 5.9488 11.5308 5.35185 11.5343C4.01053 11.5424 2.87552 12.0044 1.92469 12.9294L1.52415 13.3191L1.55185 12.0184C1.56707 11.303 1.59482 10.6434 1.61353 10.5526L1.64755 10.3876H2.36851C3.57515 10.3876 3.87863 10.1902 4.24293 9.16851C5.15878 6.60012 7.4664 4.57356 10.1755 3.95855C13.0484 3.30631 16.1396 4.27636 18.0927 6.44302C18.7961 7.22331 19.4929 8.37501 19.7852 9.24063C19.9337 9.68031 20.1134 9.95881 20.3551 10.1239C20.6912 10.3534 20.8566 10.3876 21.6323 10.3876H22.352L22.3853 10.5526C22.4036 10.6434 22.4317 11.304 22.4476 12.0205L22.4764 13.3233L22.0993 12.9517C21.1458 12.0121 20.002 11.5425 18.6477 11.5343C18.0508 11.5308 17.9696 11.5414 17.763 11.6503C17.4526 11.8139 17.2727 11.9917 17.1138 12.2923L16.9794 12.5463L16.9542 17.1177L16.9289 21.6892L16.7883 21.9767C16.4762 22.6153 15.8664 22.9319 14.9456 22.9332C14.6862 22.9336 14.6792 22.9296 14.5737 22.7219C14.4086 22.3966 14.0172 22.0438 13.6813 21.9175C13.4184 21.8186 13.3113 21.8096 12.5812 21.8254C11.8217 21.8418 11.7567 21.8511 11.5175 21.9774C11.2063 22.1415 10.8647 22.5042 10.7209 22.8231C10.5533 23.1947 10.5667 23.7846 10.7513 24.163C10.9304 24.5298 11.3084 24.8753 11.6863 25.0176C11.9449 25.1149 12.0549 25.1241 12.7581 25.1078C13.4663 25.0914 13.566 25.0777 13.7945 24.9652C14.0933 24.8181 14.4109 24.5103 14.5551 24.2281L14.6585 24.0257L15.3134 23.9949C16.0495 23.9603 16.331 23.8781 16.8356 23.5505C17.3316 23.2284 17.746 22.6783 17.9354 22.0906L18.0188 21.8317L18.6619 21.7988C19.6114 21.7502 20.1296 21.6213 20.8826 21.2464C22.0944 20.643 23.0348 19.4762 23.4325 18.0828C23.5467 17.6825 23.5487 17.6301 23.5661 14.578C23.585 11.2698 23.5649 10.8305 23.3448 9.72724C23.0839 8.4195 22.3953 6.74031 21.6786 5.66374C20.5014 3.89536 18.9823 2.55766 17.0895 1.62244C15.0971 0.638011 12.8052 0.2437 10.6201 0.509351Z" fill="white"/>
</svg>
