<svg width="122" height="72" xmlns="http://www.w3.org/2000/svg">
 <defs>
  <filter color-interpolation-filters="sRGB" filterUnits="userSpaceOnUse" height="18.4336" width="18.3643" y="24.1084" x="63.5215" id="filter0_d_6395_31460">
   <feGaussianBlur stdDeviation="2"/>
  </filter>
  <filter color-interpolation-filters="sRGB" filterUnits="userSpaceOnUse" height="188.044" width="166.704" y="3.83762" x="0.01563" id="filter1_dddddd_6395_31460">
   <feGaussianBlur stdDeviation="1.57407"/>
   <feGaussianBlur stdDeviation="3.25926"/>
   <feGaussianBlur stdDeviation="6.5"/>
   <feGaussianBlur stdDeviation="12.7407"/>
   <feGaussianBlur stdDeviation="23.4259"/>
   <feGaussianBlur stdDeviation="40"/>
  </filter>
  <filter color-interpolation-filters="sRGB" filterUnits="userSpaceOnUse" height="14.7482" width="14.7041" y="5.13391" x="76.0156" id="filter2_d_6395_31460">
   <feGaussianBlur stdDeviation="2"/>
  </filter>
  <filter color-interpolation-filters="sRGB" filterUnits="userSpaceOnUse" height="18.4354" width="18.3672" y="37.1503" x="98.0088" id="filter3_d_6395_31460">
   <feGaussianBlur stdDeviation="2"/>
  </filter>
  <filter color-interpolation-filters="sRGB" filterUnits="userSpaceOnUse" height="15.2692" width="15.2217" y="15.2819" x="100.726" id="filter4_d_6395_31460">
   <feGaussianBlur stdDeviation="2"/>
  </filter>
 </defs>
 <g>
  <title>background</title>
  <rect fill="none" id="canvas_background" height="74" width="124" y="-1" x="-1"/>
 </g>
 <g>
  <title>Layer 1</title>
  <path id="svg_1" fill="white" d="m107.573,35.6903c-3.919,-3.4118 -9.8426,-2.9802 -13.2319,0.9641c-3.3894,3.9442 -2.9606,9.9075 0.9577,13.3193c3.9183,3.4118 9.8422,2.9802 13.2322,-0.9641c3.389,-3.9442 2.96,-9.9075 -0.958,-13.3193z"/>
  <path id="svg_2" fill="white" d="m98.2969,10.91945c2.4253,0.59555 4.8711,-0.90082 5.4631,-3.34223c0.591,-2.44141 -0.895,-4.90335 -3.3207,-5.49889c-2.4253,-0.59555 -4.8711,0.90082 -5.4627,3.34223c-0.5916,2.44141 0.8949,4.90335 3.3203,5.49889z"/>
  <path id="svg_3" fill="white" d="m98.3357,17.3738c-1.4853,4.9962 1.3342,10.2585 6.2973,11.7537c4.964,1.4951 10.191,-1.3431 11.677,-6.3393c1.485,-4.9963 -1.335,-10.2586 -6.298,-11.7537c-4.963,-1.49513 -10.191,1.3431 -11.6763,6.3393z"/>
  <path id="svg_4" fill="white" d="m74.5367,33.6883c-0.4689,4.4068 2.6999,8.3619 7.0777,8.8339c4.3779,0.472 8.3069,-2.7178 8.7758,-7.1246c0.4689,-4.4068 -2.6999,-8.3619 -7.0777,-8.8339c-4.3779,-0.472 -8.3069,2.7178 -8.7758,7.1246z"/>
  <path id="svg_5" fill="white" d="m85.4442,21.4504c5.1808,0 9.3807,-4.2277 9.3807,-9.4429c0,-5.21509 -4.1999,-9.4428 -9.3807,-9.4428c-5.1808,0 -9.3807,4.22771 -9.3807,9.4428c0,5.2152 4.1999,9.4429 9.3807,9.4429z"/>
  <path id="svg_6" fill="white" d="m83.2061,21.1771c9.9393,2.4622 13.1489,8.6489 9.4764,18.2666l10.9975,-5.7813c-9.939,-2.4622 -13.1486,-8.6489 -9.4761,-18.2666l-10.9978,5.7813z" clip-rule="evenodd" fill-rule="evenodd"/>
  <g id="svg_7" filter="url(#filter0_d_6395_31460)">
   <path id="svg_8" fill="white" d="m68.5513,29.7697c-0.3048,2.8645 1.7549,5.4354 4.6006,5.7422c2.8457,0.3068 5.3996,-1.7666 5.7044,-4.6311c0.3048,-2.8646 -1.755,-5.4354 -4.6006,-5.7422c-2.8457,-0.3069 -5.3996,1.7666 -5.7044,4.6311z"/>
  </g>
  <g id="svg_9" filter="url(#filter1_dddddd_6395_31460)">
   <g id="svg_10" filter="url(#filter2_d_6395_31460)">
    <path id="svg_11" fill="white" d="m83.8003,12.8328c1.8242,0.3157 3.5571,-0.9171 3.8707,-2.7533c0.3135,-1.83624 -0.9111,-3.58068 -2.7352,-3.89631c-1.8242,-0.31563 -3.5572,0.91708 -3.8707,2.75332c-0.3136,1.83624 0.911,3.58069 2.7352,3.89629z"/>
   </g>
  </g>
  <g id="svg_12" filter="url(#filter3_d_6395_31460)">
   <path id="svg_13" fill="white" d="m113.152,41.855c-0.83,-2.7571 -3.724,-4.3147 -6.463,-3.4791c-2.738,0.8356 -4.286,3.748 -3.456,6.5051c0.83,2.757 3.724,4.3147 6.463,3.4791c2.738,-0.8357 4.286,-3.7481 3.456,-6.5051z"/>
  </g>
  <g id="svg_14" filter="url(#filter4_d_6395_31460)">
   <path id="svg_15" fill="white" d="m109.93,16.3319c-1.966,-0.3301 -3.827,1.0072 -4.154,2.9869c-0.328,1.9797 1,3.8521 2.967,4.1822c1.966,0.3301 3.827,-1.0072 4.154,-2.9869c0.328,-1.9797 -1,-3.8521 -2.967,-4.1822z"/>
  </g>
  <path id="svg_16" fill="white" d="m100.0957,11.0117c0.8411,-0.19416 2.0983,1.1996 0.8792,2.5205l3.7161,-2.4658c-1.686,0.6068 -2.464,-1.10527 -1.955,-1.80688l-2.6403,1.75218z" clip-rule="evenodd" fill-rule="evenodd"/>
  <path id="svg_17" fill="white" d="m68.9316,59.7047l1.1776,0l1.6992,8.8683l1.6844,-8.8683l1.0732,0l-1.9527,10.1934l-1.7141,0l-1.9676,-10.1934z"/>
  <path id="svg_18" fill="white" d="m76.5033,59.7047l1.1626,0l0,10.1934l-1.1626,0l0,-10.1934z"/>
  <path id="svg_19" fill="white" d="m79.8153,67.4371l0,-5.2714c0,-0.7961 0.1988,-1.4222 0.5963,-1.8785c0.4074,-0.4563 1.0036,-0.6844 1.7887,-0.6844c0.785,0 1.3812,0.2281 1.7886,0.6844c0.4075,0.4563 0.6112,1.0824 0.6112,1.8785l0,5.2714c0,0.7961 -0.2037,1.4223 -0.6112,1.8785c-0.4074,0.4563 -1.0036,0.6845 -1.7886,0.6845c-0.7751,0 -1.3664,-0.2282 -1.7738,-0.6845c-0.4074,-0.4562 -0.6112,-1.0824 -0.6112,-1.8785zm1.1478,-5.3297l0,5.388c0,0.9805 0.4124,1.4708 1.2372,1.4708c0.8247,0 1.2371,-0.4903 1.2371,-1.4708l0,-5.388c0,-0.9805 -0.4124,-1.4707 -1.2371,-1.4707c-0.8248,0 -1.2372,0.4902 -1.2372,1.4707z"/>
  <path id="svg_20" fill="white" d="m92.2418,61.6997l-1.6545,8.1839l-1.118,0l-1.729,-8.1111l0,8.1256l-1.0136,0l0,-10.1934l1.6247,0l1.7142,8.1402l1.6545,-8.1402l1.6247,0l0,10.1934l-1.103,0l0,-8.1984z"/>
  <path id="svg_21" fill="white" d="m95.5872,59.7047l1.1626,0l0,10.1934l-1.1626,0l0,-10.1934z"/>
  <path id="svg_22" fill="white" d="m101.672,69.8981l-1.1629,0l0,-9.1595l-1.9229,0l0,-1.0339l5.0088,0l0,1.0339l-1.923,0l0,9.1595z"/>
  <path id="svg_23" fill="white" d="m105.447,59.7047l2.325,0c0.805,0 1.392,0.1942 1.759,0.5825c0.378,0.3883 0.567,0.9708 0.567,1.7474l0,0.8301c0,1.1261 -0.433,1.8251 -1.297,2.0969c0.874,0.2524 1.312,0.9611 1.312,2.1261l0,1.5872c0,0.5631 0.069,0.9708 0.208,1.2232l-1.177,0c-0.13,-0.2815 -0.194,-0.6941 -0.194,-1.2377l0,-1.6019c0,-0.5533 -0.129,-0.9416 -0.388,-1.1649c-0.248,-0.233 -0.626,-0.3495 -1.132,-0.3495l-0.82,0l0,4.354l-1.163,0l0,-10.1934zm1.163,4.8055l0.864,0c0.497,0 0.865,-0.102 1.103,-0.3058c0.249,-0.2039 0.373,-0.5679 0.373,-1.0922l0,-0.9756c0,-0.932 -0.403,-1.398 -1.207,-1.398l-1.133,0l0,3.7716z"/>
  <path id="svg_24" fill="white" d="m116.172,67.8449l-2.638,0l-0.402,2.0532l-1.073,0l1.997,-10.1934l1.684,0l1.998,10.1934l-1.163,0l-0.403,-2.0532zm-1.341,-6.8587l-1.148,5.883l2.326,0l-1.178,-5.883z"/>
 </g>
</svg>