<svg width="49" height="68" viewBox="0 0 49 68" fill="none" xmlns="http://www.w3.org/2000/svg">
<g clip-path="url(#clip0_2842_8249)">
<path d="M38.8042 33.5151C34.9627 30.2189 29.1549 30.6359 25.8321 34.4466C22.5092 38.2572 22.9296 44.0186 26.7711 47.3148C30.6125 50.6111 36.4203 50.194 39.7431 46.3834C43.066 42.5727 42.6456 36.8114 38.8042 33.5151Z" fill="white"/>
<path d="M29.7049 9.58348C32.0826 10.1589 34.4804 8.71317 35.0604 6.35445C35.6404 3.99573 34.1831 1.61718 31.8053 1.0418C29.4275 0.466432 27.0298 1.91212 26.4498 4.27084C25.8698 6.62956 27.3271 9.00811 29.7049 9.58348Z" fill="white"/>
<path d="M29.3655 18.5037C29.3806 23.5455 33.5076 27.6022 38.5832 27.5646C43.6589 27.5269 47.7613 23.4092 47.7462 18.3673C47.731 13.3255 43.6041 9.26881 38.5284 9.30646C33.4527 9.34412 29.3503 13.4619 29.3655 18.5037Z" fill="white"/>
<path d="M6.41427 31.581C5.95457 35.8386 9.0612 39.6597 13.3531 40.1158C17.645 40.5718 21.497 37.49 21.9567 33.2325C22.4164 28.9749 19.3098 25.1538 15.0179 24.6977C10.7259 24.2417 6.87398 27.3235 6.41427 31.581Z" fill="white"/>
<path d="M17.1029 19.7578C22.182 19.7578 26.2995 15.6732 26.2995 10.6347C26.2995 5.59624 22.182 1.51172 17.1029 1.51172C12.0237 1.51172 7.90625 5.59624 7.90625 10.6347C7.90625 15.6732 12.0237 19.7578 17.1029 19.7578Z" fill="white"/>
<path fill-rule="evenodd" clip-rule="evenodd" d="M14.9219 19.4938C24.6662 21.8726 27.8128 27.8497 24.2124 37.1417L34.9944 31.5562C25.2501 29.1773 22.1035 23.2002 25.7039 13.9082L14.9219 19.4938Z" fill="white"/>
<g filter="url(#filter0_dddddd_2842_8249)">
<g filter="url(#filter1_d_2842_8249)">
<path d="M0.543623 27.795C0.244808 30.5625 2.26417 33.0463 5.05398 33.3427C7.8438 33.6391 10.3476 31.6359 10.6464 28.8684C10.9453 26.1009 8.92591 23.6171 6.13609 23.3207C3.34627 23.0243 0.842438 25.0275 0.543623 27.795Z" fill="white"/>
</g>
</g>
<g filter="url(#filter2_dddddd_2842_8249)">
<g filter="url(#filter3_d_2842_8249)">
<path d="M15.4765 11.4316C17.2649 11.7366 18.9638 10.5456 19.2712 8.77156C19.5786 6.99751 18.3781 5.31216 16.5897 5.00722C14.8013 4.70228 13.1024 5.89323 12.795 7.66728C12.4876 9.44133 13.6881 11.1267 15.4765 11.4316Z" fill="white"/>
</g>
</g>
<g filter="url(#filter4_dddddd_2842_8249)">
<g filter="url(#filter5_d_2842_8249)">
<path d="M44.2581 39.4723C43.4443 36.8086 40.6078 35.3037 37.9226 36.111C35.2375 36.9183 33.7204 39.7321 34.5343 42.3958C35.3481 45.0594 38.1846 46.5643 40.8697 45.757C43.5549 44.9497 45.0719 42.1359 44.2581 39.4723Z" fill="white"/>
</g>
</g>
<g filter="url(#filter6_dddddd_2842_8249)">
<g filter="url(#filter7_d_2842_8249)">
<path d="M41.1184 14.8127C39.1903 14.4939 37.3667 15.7858 37.0452 17.6985C36.7238 19.6111 38.0262 21.4201 39.9542 21.739C41.8823 22.0579 43.7059 20.7659 44.0274 18.8533C44.3489 16.9407 43.0465 15.1316 41.1184 14.8127Z" fill="white"/>
</g>
</g>
<path fill-rule="evenodd" clip-rule="evenodd" d="M31.4766 9.67138C32.3012 9.48377 33.5333 10.8303 32.3385 12.1065L35.9816 9.72423C34.3283 10.3105 33.5665 8.65636 34.0653 7.97852L31.4766 9.67138Z" fill="white"/>
<path d="M0.914062 56.7157H2.0685L3.7344 65.2836L5.38569 56.7157H6.43783L4.52351 66.5638H2.843L0.914062 56.7157Z" fill="white"/>
<path d="M8.33708 56.7157H9.47691V66.5638H8.33708V56.7157Z" fill="white"/>
<path d="M11.5842 64.1862V59.0933C11.5842 58.3242 11.779 57.7192 12.1687 57.2784C12.5681 56.8376 13.1526 56.6172 13.9223 56.6172C14.6919 56.6172 15.2764 56.8376 15.6759 57.2784C16.0753 57.7192 16.275 58.3242 16.275 59.0933V64.1862C16.275 64.9553 16.0753 65.5603 15.6759 66.0011C15.2764 66.4419 14.6919 66.6623 13.9223 66.6623C13.1624 66.6623 12.5827 66.4419 12.1833 66.0011C11.7839 65.5603 11.5842 64.9553 11.5842 64.1862ZM12.7094 59.037V64.2425C12.7094 65.1898 13.1137 65.6634 13.9223 65.6634C14.7309 65.6634 15.1352 65.1898 15.1352 64.2425V59.037C15.1352 58.0897 14.7309 57.6161 13.9223 57.6161C13.1137 57.6161 12.7094 58.0897 12.7094 59.037Z" fill="white"/>
<path d="M23.7667 58.6431L22.1447 66.5498H21.0487L19.3536 58.7134V66.5638H18.3599V56.7157H19.9527L21.6332 64.5801L23.2553 56.7157H24.8481V66.5638H23.7667V58.6431Z" fill="white"/>
<path d="M27.0465 56.7157H28.1863V66.5638H27.0465V56.7157Z" fill="white"/>
<path d="M33.0116 66.5638H31.8718V57.7146H29.9867V56.7157H34.8967V57.7146H33.0116V66.5638Z" fill="white"/>
<path d="M36.7128 56.7157H38.9925C39.7816 56.7157 40.3564 56.9033 40.7168 57.2784C41.087 57.6536 41.2721 58.2163 41.2721 58.9667V59.7686C41.2721 60.8566 40.8484 61.5319 40.0008 61.7945C40.8581 62.0384 41.2868 62.723 41.2868 63.8485V65.382C41.2868 65.926 41.3549 66.32 41.4913 66.5638H40.3369C40.2103 66.2918 40.1469 65.8932 40.1469 65.368V63.8204C40.1469 63.2858 40.0203 62.9106 39.767 62.6949C39.5234 62.4698 39.1532 62.3573 38.6564 62.3573H37.8527V66.5638H36.7128V56.7157ZM37.8527 61.3584H38.7002C39.1873 61.3584 39.5478 61.2599 39.7816 61.0629C40.0252 60.866 40.1469 60.5142 40.1469 60.0078V59.0652C40.1469 58.1648 39.7524 57.7146 38.9633 57.7146H37.8527V61.3584Z" fill="white"/>
<path d="M47.2278 64.5801H44.6413L44.2467 66.5638H43.1946L45.1527 56.7157H46.804L48.7622 66.5638H47.6224L47.2278 64.5801ZM45.9126 57.9537L44.7874 63.6375H47.0671L45.9126 57.9537Z" fill="white"/>
</g>
<defs>
<filter id="filter0_dddddd_2842_8249" x="-86.5747" y="21.8798" width="184.341" height="207.445" filterUnits="userSpaceOnUse" color-interpolation-filters="sRGB">
<feFlood flood-opacity="0" result="BackgroundImageFix"/>
<feColorMatrix in="SourceAlpha" type="matrix" values="0 0 0 0 0 0 0 0 0 0 0 0 0 0 0 0 0 0 127 0" result="hardAlpha"/>
<feOffset dy="2.01598"/>
<feGaussianBlur stdDeviation="1.71358"/>
<feColorMatrix type="matrix" values="0 0 0 0 0 0 0 0 0 0 0 0 0 0 0 0 0 0 0.0168519 0"/>
<feBlend mode="normal" in2="BackgroundImageFix" result="effect1_dropShadow_2842_8249"/>
<feColorMatrix in="SourceAlpha" type="matrix" values="0 0 0 0 0 0 0 0 0 0 0 0 0 0 0 0 0 0 127 0" result="hardAlpha"/>
<feOffset dy="8.87032"/>
<feGaussianBlur stdDeviation="3.54813"/>
<feColorMatrix type="matrix" values="0 0 0 0 0 0 0 0 0 0 0 0 0 0 0 0 0 0 0.0274815 0"/>
<feBlend mode="normal" in2="effect1_dropShadow_2842_8249" result="effect2_dropShadow_2842_8249"/>
<feColorMatrix in="SourceAlpha" type="matrix" values="0 0 0 0 0 0 0 0 0 0 0 0 0 0 0 0 0 0 127 0" result="hardAlpha"/>
<feOffset dy="21.7726"/>
<feGaussianBlur stdDeviation="7.07609"/>
<feColorMatrix type="matrix" values="0 0 0 0 0 0 0 0 0 0 0 0 0 0 0 0 0 0 0.035 0"/>
<feBlend mode="normal" in2="effect2_dropShadow_2842_8249" result="effect3_dropShadow_2842_8249"/>
<feColorMatrix in="SourceAlpha" type="matrix" values="0 0 0 0 0 0 0 0 0 0 0 0 0 0 0 0 0 0 127 0" result="hardAlpha"/>
<feOffset dy="41.9324"/>
<feGaussianBlur stdDeviation="13.8699"/>
<feColorMatrix type="matrix" values="0 0 0 0 0 0 0 0 0 0 0 0 0 0 0 0 0 0 0.0425185 0"/>
<feBlend mode="normal" in2="effect3_dropShadow_2842_8249" result="effect4_dropShadow_2842_8249"/>
<feColorMatrix in="SourceAlpha" type="matrix" values="0 0 0 0 0 0 0 0 0 0 0 0 0 0 0 0 0 0 127 0" result="hardAlpha"/>
<feOffset dy="70.5593"/>
<feGaussianBlur stdDeviation="25.5021"/>
<feColorMatrix type="matrix" values="0 0 0 0 0 0 0 0 0 0 0 0 0 0 0 0 0 0 0.0531481 0"/>
<feBlend mode="normal" in2="effect4_dropShadow_2842_8249" result="effect5_dropShadow_2842_8249"/>
<feColorMatrix in="SourceAlpha" type="matrix" values="0 0 0 0 0 0 0 0 0 0 0 0 0 0 0 0 0 0 127 0" result="hardAlpha"/>
<feOffset dy="108.863"/>
<feGaussianBlur stdDeviation="43.5452"/>
<feColorMatrix type="matrix" values="0 0 0 0 0 0 0 0 0 0 0 0 0 0 0 0 0 0 0.07 0"/>
<feBlend mode="normal" in2="effect5_dropShadow_2842_8249" result="effect6_dropShadow_2842_8249"/>
<feBlend mode="normal" in="SourceGraphic" in2="effect6_dropShadow_2842_8249" result="shape"/>
</filter>
<filter id="filter1_d_2842_8249" x="-2.81746" y="23.291" width="16.8263" height="16.7462" filterUnits="userSpaceOnUse" color-interpolation-filters="sRGB">
<feFlood flood-opacity="0" result="BackgroundImageFix"/>
<feColorMatrix in="SourceAlpha" type="matrix" values="0 0 0 0 0 0 0 0 0 0 0 0 0 0 0 0 0 0 127 0" result="hardAlpha"/>
<feOffset dy="3.33308"/>
<feGaussianBlur stdDeviation="1.66654"/>
<feComposite in2="hardAlpha" operator="out"/>
<feColorMatrix type="matrix" values="0 0 0 0 0 0 0 0 0 0 0 0 0 0 0 0 0 0 0.25 0"/>
<feBlend mode="normal" in2="BackgroundImageFix" result="effect1_dropShadow_2842_8249"/>
<feBlend mode="normal" in="SourceGraphic" in2="effect1_dropShadow_2842_8249" result="shape"/>
</filter>
<filter id="filter2_dddddd_2842_8249" x="-74.3443" y="3.5478" width="180.755" height="203.884" filterUnits="userSpaceOnUse" color-interpolation-filters="sRGB">
<feFlood flood-opacity="0" result="BackgroundImageFix"/>
<feColorMatrix in="SourceAlpha" type="matrix" values="0 0 0 0 0 0 0 0 0 0 0 0 0 0 0 0 0 0 127 0" result="hardAlpha"/>
<feOffset dy="2.01598"/>
<feGaussianBlur stdDeviation="1.71358"/>
<feColorMatrix type="matrix" values="0 0 0 0 0 0 0 0 0 0 0 0 0 0 0 0 0 0 0.0168519 0"/>
<feBlend mode="normal" in2="BackgroundImageFix" result="effect1_dropShadow_2842_8249"/>
<feColorMatrix in="SourceAlpha" type="matrix" values="0 0 0 0 0 0 0 0 0 0 0 0 0 0 0 0 0 0 127 0" result="hardAlpha"/>
<feOffset dy="8.87032"/>
<feGaussianBlur stdDeviation="3.54813"/>
<feColorMatrix type="matrix" values="0 0 0 0 0 0 0 0 0 0 0 0 0 0 0 0 0 0 0.0274815 0"/>
<feBlend mode="normal" in2="effect1_dropShadow_2842_8249" result="effect2_dropShadow_2842_8249"/>
<feColorMatrix in="SourceAlpha" type="matrix" values="0 0 0 0 0 0 0 0 0 0 0 0 0 0 0 0 0 0 127 0" result="hardAlpha"/>
<feOffset dy="21.7726"/>
<feGaussianBlur stdDeviation="7.07609"/>
<feColorMatrix type="matrix" values="0 0 0 0 0 0 0 0 0 0 0 0 0 0 0 0 0 0 0.035 0"/>
<feBlend mode="normal" in2="effect2_dropShadow_2842_8249" result="effect3_dropShadow_2842_8249"/>
<feColorMatrix in="SourceAlpha" type="matrix" values="0 0 0 0 0 0 0 0 0 0 0 0 0 0 0 0 0 0 127 0" result="hardAlpha"/>
<feOffset dy="41.9324"/>
<feGaussianBlur stdDeviation="13.8699"/>
<feColorMatrix type="matrix" values="0 0 0 0 0 0 0 0 0 0 0 0 0 0 0 0 0 0 0.0425185 0"/>
<feBlend mode="normal" in2="effect3_dropShadow_2842_8249" result="effect4_dropShadow_2842_8249"/>
<feColorMatrix in="SourceAlpha" type="matrix" values="0 0 0 0 0 0 0 0 0 0 0 0 0 0 0 0 0 0 127 0" result="hardAlpha"/>
<feOffset dy="70.5593"/>
<feGaussianBlur stdDeviation="25.5021"/>
<feColorMatrix type="matrix" values="0 0 0 0 0 0 0 0 0 0 0 0 0 0 0 0 0 0 0.0531481 0"/>
<feBlend mode="normal" in2="effect4_dropShadow_2842_8249" result="effect5_dropShadow_2842_8249"/>
<feColorMatrix in="SourceAlpha" type="matrix" values="0 0 0 0 0 0 0 0 0 0 0 0 0 0 0 0 0 0 127 0" result="hardAlpha"/>
<feOffset dy="108.863"/>
<feGaussianBlur stdDeviation="43.5452"/>
<feColorMatrix type="matrix" values="0 0 0 0 0 0 0 0 0 0 0 0 0 0 0 0 0 0 0.07 0"/>
<feBlend mode="normal" in2="effect5_dropShadow_2842_8249" result="effect6_dropShadow_2842_8249"/>
<feBlend mode="normal" in="SourceGraphic" in2="effect6_dropShadow_2842_8249" result="shape"/>
</filter>
<filter id="filter3_d_2842_8249" x="9.41301" y="4.95898" width="13.2404" height="13.1857" filterUnits="userSpaceOnUse" color-interpolation-filters="sRGB">
<feFlood flood-opacity="0" result="BackgroundImageFix"/>
<feColorMatrix in="SourceAlpha" type="matrix" values="0 0 0 0 0 0 0 0 0 0 0 0 0 0 0 0 0 0 127 0" result="hardAlpha"/>
<feOffset dy="3.33308"/>
<feGaussianBlur stdDeviation="1.66654"/>
<feComposite in2="hardAlpha" operator="out"/>
<feColorMatrix type="matrix" values="0 0 0 0 0 0 0 0 0 0 0 0 0 0 0 0 0 0 0.25 0"/>
<feBlend mode="normal" in2="BackgroundImageFix" result="effect1_dropShadow_2842_8249"/>
<feBlend mode="normal" in="SourceGraphic" in2="effect1_dropShadow_2842_8249" result="shape"/>
</filter>
<filter id="filter4_dddddd_2842_8249" x="-52.774" y="34.4814" width="184.341" height="207.447" filterUnits="userSpaceOnUse" color-interpolation-filters="sRGB">
<feFlood flood-opacity="0" result="BackgroundImageFix"/>
<feColorMatrix in="SourceAlpha" type="matrix" values="0 0 0 0 0 0 0 0 0 0 0 0 0 0 0 0 0 0 127 0" result="hardAlpha"/>
<feOffset dy="2.01598"/>
<feGaussianBlur stdDeviation="1.71358"/>
<feColorMatrix type="matrix" values="0 0 0 0 0 0 0 0 0 0 0 0 0 0 0 0 0 0 0.0168519 0"/>
<feBlend mode="normal" in2="BackgroundImageFix" result="effect1_dropShadow_2842_8249"/>
<feColorMatrix in="SourceAlpha" type="matrix" values="0 0 0 0 0 0 0 0 0 0 0 0 0 0 0 0 0 0 127 0" result="hardAlpha"/>
<feOffset dy="8.87032"/>
<feGaussianBlur stdDeviation="3.54813"/>
<feColorMatrix type="matrix" values="0 0 0 0 0 0 0 0 0 0 0 0 0 0 0 0 0 0 0.0274815 0"/>
<feBlend mode="normal" in2="effect1_dropShadow_2842_8249" result="effect2_dropShadow_2842_8249"/>
<feColorMatrix in="SourceAlpha" type="matrix" values="0 0 0 0 0 0 0 0 0 0 0 0 0 0 0 0 0 0 127 0" result="hardAlpha"/>
<feOffset dy="21.7726"/>
<feGaussianBlur stdDeviation="7.07609"/>
<feColorMatrix type="matrix" values="0 0 0 0 0 0 0 0 0 0 0 0 0 0 0 0 0 0 0.035 0"/>
<feBlend mode="normal" in2="effect2_dropShadow_2842_8249" result="effect3_dropShadow_2842_8249"/>
<feColorMatrix in="SourceAlpha" type="matrix" values="0 0 0 0 0 0 0 0 0 0 0 0 0 0 0 0 0 0 127 0" result="hardAlpha"/>
<feOffset dy="41.9324"/>
<feGaussianBlur stdDeviation="13.8699"/>
<feColorMatrix type="matrix" values="0 0 0 0 0 0 0 0 0 0 0 0 0 0 0 0 0 0 0.0425185 0"/>
<feBlend mode="normal" in2="effect3_dropShadow_2842_8249" result="effect4_dropShadow_2842_8249"/>
<feColorMatrix in="SourceAlpha" type="matrix" values="0 0 0 0 0 0 0 0 0 0 0 0 0 0 0 0 0 0 127 0" result="hardAlpha"/>
<feOffset dy="70.5593"/>
<feGaussianBlur stdDeviation="25.5021"/>
<feColorMatrix type="matrix" values="0 0 0 0 0 0 0 0 0 0 0 0 0 0 0 0 0 0 0.0531481 0"/>
<feBlend mode="normal" in2="effect4_dropShadow_2842_8249" result="effect5_dropShadow_2842_8249"/>
<feColorMatrix in="SourceAlpha" type="matrix" values="0 0 0 0 0 0 0 0 0 0 0 0 0 0 0 0 0 0 127 0" result="hardAlpha"/>
<feOffset dy="108.863"/>
<feGaussianBlur stdDeviation="43.5452"/>
<feColorMatrix type="matrix" values="0 0 0 0 0 0 0 0 0 0 0 0 0 0 0 0 0 0 0.07 0"/>
<feBlend mode="normal" in2="effect5_dropShadow_2842_8249" result="effect6_dropShadow_2842_8249"/>
<feBlend mode="normal" in="SourceGraphic" in2="effect6_dropShadow_2842_8249" result="shape"/>
</filter>
<filter id="filter5_d_2842_8249" x="30.9833" y="35.8926" width="16.8263" height="16.7482" filterUnits="userSpaceOnUse" color-interpolation-filters="sRGB">
<feFlood flood-opacity="0" result="BackgroundImageFix"/>
<feColorMatrix in="SourceAlpha" type="matrix" values="0 0 0 0 0 0 0 0 0 0 0 0 0 0 0 0 0 0 127 0" result="hardAlpha"/>
<feOffset dy="3.33308"/>
<feGaussianBlur stdDeviation="1.66654"/>
<feComposite in2="hardAlpha" operator="out"/>
<feColorMatrix type="matrix" values="0 0 0 0 0 0 0 0 0 0 0 0 0 0 0 0 0 0 0.25 0"/>
<feBlend mode="normal" in2="BackgroundImageFix" result="effect1_dropShadow_2842_8249"/>
<feBlend mode="normal" in="SourceGraphic" in2="effect1_dropShadow_2842_8249" result="shape"/>
</filter>
<filter id="filter6_dddddd_2842_8249" x="-50.0943" y="13.3525" width="181.259" height="204.388" filterUnits="userSpaceOnUse" color-interpolation-filters="sRGB">
<feFlood flood-opacity="0" result="BackgroundImageFix"/>
<feColorMatrix in="SourceAlpha" type="matrix" values="0 0 0 0 0 0 0 0 0 0 0 0 0 0 0 0 0 0 127 0" result="hardAlpha"/>
<feOffset dy="2.01598"/>
<feGaussianBlur stdDeviation="1.71358"/>
<feColorMatrix type="matrix" values="0 0 0 0 0 0 0 0 0 0 0 0 0 0 0 0 0 0 0.0168519 0"/>
<feBlend mode="normal" in2="BackgroundImageFix" result="effect1_dropShadow_2842_8249"/>
<feColorMatrix in="SourceAlpha" type="matrix" values="0 0 0 0 0 0 0 0 0 0 0 0 0 0 0 0 0 0 127 0" result="hardAlpha"/>
<feOffset dy="8.87032"/>
<feGaussianBlur stdDeviation="3.54813"/>
<feColorMatrix type="matrix" values="0 0 0 0 0 0 0 0 0 0 0 0 0 0 0 0 0 0 0.0274815 0"/>
<feBlend mode="normal" in2="effect1_dropShadow_2842_8249" result="effect2_dropShadow_2842_8249"/>
<feColorMatrix in="SourceAlpha" type="matrix" values="0 0 0 0 0 0 0 0 0 0 0 0 0 0 0 0 0 0 127 0" result="hardAlpha"/>
<feOffset dy="21.7726"/>
<feGaussianBlur stdDeviation="7.07609"/>
<feColorMatrix type="matrix" values="0 0 0 0 0 0 0 0 0 0 0 0 0 0 0 0 0 0 0.035 0"/>
<feBlend mode="normal" in2="effect2_dropShadow_2842_8249" result="effect3_dropShadow_2842_8249"/>
<feColorMatrix in="SourceAlpha" type="matrix" values="0 0 0 0 0 0 0 0 0 0 0 0 0 0 0 0 0 0 127 0" result="hardAlpha"/>
<feOffset dy="41.9324"/>
<feGaussianBlur stdDeviation="13.8699"/>
<feColorMatrix type="matrix" values="0 0 0 0 0 0 0 0 0 0 0 0 0 0 0 0 0 0 0.0425185 0"/>
<feBlend mode="normal" in2="effect3_dropShadow_2842_8249" result="effect4_dropShadow_2842_8249"/>
<feColorMatrix in="SourceAlpha" type="matrix" values="0 0 0 0 0 0 0 0 0 0 0 0 0 0 0 0 0 0 127 0" result="hardAlpha"/>
<feOffset dy="70.5593"/>
<feGaussianBlur stdDeviation="25.5021"/>
<feColorMatrix type="matrix" values="0 0 0 0 0 0 0 0 0 0 0 0 0 0 0 0 0 0 0.0531481 0"/>
<feBlend mode="normal" in2="effect4_dropShadow_2842_8249" result="effect5_dropShadow_2842_8249"/>
<feColorMatrix in="SourceAlpha" type="matrix" values="0 0 0 0 0 0 0 0 0 0 0 0 0 0 0 0 0 0 127 0" result="hardAlpha"/>
<feOffset dy="108.863"/>
<feGaussianBlur stdDeviation="43.5452"/>
<feColorMatrix type="matrix" values="0 0 0 0 0 0 0 0 0 0 0 0 0 0 0 0 0 0 0.07 0"/>
<feBlend mode="normal" in2="effect5_dropShadow_2842_8249" result="effect6_dropShadow_2842_8249"/>
<feBlend mode="normal" in="SourceGraphic" in2="effect6_dropShadow_2842_8249" result="shape"/>
</filter>
<filter id="filter7_d_2842_8249" x="33.663" y="14.7637" width="13.7443" height="13.6896" filterUnits="userSpaceOnUse" color-interpolation-filters="sRGB">
<feFlood flood-opacity="0" result="BackgroundImageFix"/>
<feColorMatrix in="SourceAlpha" type="matrix" values="0 0 0 0 0 0 0 0 0 0 0 0 0 0 0 0 0 0 127 0" result="hardAlpha"/>
<feOffset dy="3.33308"/>
<feGaussianBlur stdDeviation="1.66654"/>
<feComposite in2="hardAlpha" operator="out"/>
<feColorMatrix type="matrix" values="0 0 0 0 0 0 0 0 0 0 0 0 0 0 0 0 0 0 0.25 0"/>
<feBlend mode="normal" in2="BackgroundImageFix" result="effect1_dropShadow_2842_8249"/>
<feBlend mode="normal" in="SourceGraphic" in2="effect1_dropShadow_2842_8249" result="shape"/>
</filter>
<clipPath id="clip0_2842_8249">
<rect width="49" height="68" fill="white"/>
</clipPath>
</defs>
</svg>
