<svg width="14" height="26" viewBox="0 0 14 26" fill="none" xmlns="http://www.w3.org/2000/svg">
<path fill-rule="evenodd" clip-rule="evenodd" d="M6.16535 0.630785C4.65465 0.849473 3.90376 1.1099 2.95505 1.74425C1.79552 2.5196 0.720697 3.83399 0.203389 5.10916C0.0471588 5.49418 0.0346201 5.55681 0.0818446 5.71523C0.110861 5.81236 0.183548 5.93811 0.243455 5.99462C0.303363 6.05113 0.946874 6.36323 1.6735 6.68823C3.48777 7.49957 3.49118 7.49947 3.94071 6.62052C4.2009 6.11169 4.70413 5.42035 5.02745 5.12749C5.52035 4.68109 6.23088 4.48123 7.17292 4.52393C8.12447 4.56707 8.71053 4.8095 9.22322 5.372C9.86376 6.07472 10.05 7.14703 9.70584 8.15004C9.44436 8.91202 8.79426 9.73441 7.41457 11.0487C5.47058 12.9005 5.05003 13.8017 4.91282 16.409C4.87487 17.1301 4.9208 17.3037 5.19329 17.4692C5.33962 17.5581 5.44622 17.5636 7.03009 17.5636C8.56415 17.5636 8.72556 17.5559 8.87147 17.476C9.09529 17.3533 9.15068 17.1737 9.18666 16.4538C9.24821 15.2212 9.40016 14.69 9.86957 14.0664C9.9989 13.8945 10.5479 13.2973 11.0896 12.7392C12.4244 11.3639 12.8744 10.7875 13.3204 9.88183C13.7624 8.98401 13.945 8.15288 13.9433 7.0442C13.9407 5.22501 13.342 3.74549 12.0984 2.48481C11.1621 1.5356 10.0332 0.978746 8.51937 0.719283C8.10602 0.648446 6.46859 0.586922 6.16535 0.630785ZM6.28545 19.8838C5.78972 20.0152 5.41985 20.234 5.03542 20.6236C4.61847 21.0461 4.44793 21.3392 4.31471 21.8623C4.06922 22.8264 4.32095 23.7623 5.01755 24.4759C5.85515 25.3339 7.1036 25.5437 8.19351 25.0097C8.63246 24.7945 9.18465 24.2433 9.39526 23.81C9.92799 22.7139 9.74975 21.5277 8.92071 20.651C8.37683 20.076 7.73851 19.8062 6.93401 19.8113C6.72263 19.8127 6.43078 19.8453 6.28545 19.8838Z" fill="white"/>
</svg>
