<svg width="28" height="28" viewBox="0 0 28 28" fill="none" xmlns="http://www.w3.org/2000/svg">
<path d="M21.323 20.3435C23.3168 18.11 24.4181 15.2187 24.4161 12.2232C24.4161 5.48013 18.9355 0 12.2081 0C5.47335 0 0 5.48738 0 12.2232C0 18.959 5.48031 24.4464 12.2081 24.4464C15.1999 24.4486 18.0876 23.346 20.3183 21.3494L26.7535 27.7928C26.8874 27.9277 27.07 28.0024 27.2596 27.9999C27.4486 27.9991 27.6301 27.925 27.7657 27.7928C27.899 27.6596 27.9739 27.4787 27.9739 27.2897C27.9739 27.101 27.899 26.9201 27.7657 26.7869L21.323 20.3435ZM1.4181 12.2232C1.4181 6.27229 6.25728 1.4271 12.2008 1.4271C18.1446 1.4271 22.9836 6.27229 22.9836 12.2232C22.9836 18.1741 18.1446 23.0193 12.2008 23.0193C6.25728 23.0193 1.4181 18.1741 1.4181 12.2232Z" fill="white"/>
</svg>
