<svg width="69" height="90" viewBox="0 0 69 90" fill="none" xmlns="http://www.w3.org/2000/svg">
<path d="M68.4442 9.88113L38.2165 -0.00012207L7.9888 9.88113C5.72055 10.6162 3.74547 12.0386 2.34502 13.9455C0.944564 15.8524 0.190208 18.1466 0.189453 20.5011V44.9661C0.189453 73.1811 35.1743 88.7624 36.6726 89.4111L38.0187 89.9999L39.4181 89.5424C40.9202 89.0474 76.2435 77.1299 76.2435 44.9661V20.5011C76.2422 18.1468 75.4876 15.8528 74.0872 13.946C72.6869 12.0392 70.7121 10.6167 68.4442 9.88113ZM68.6381 44.9661C68.6381 68.4524 44.4947 79.5261 38.3952 81.9449C32.2843 78.9336 7.79486 65.5686 7.79486 44.9661V20.5011C7.7952 19.7161 8.04683 18.9513 8.51389 18.3156C8.98095 17.68 9.63959 17.2059 10.3959 16.9611L38.2165 7.86363L66.0371 16.9611C66.794 17.2049 67.4533 17.6787 67.9205 18.3146C68.3877 18.9505 68.6389 19.7159 68.6381 20.5011V44.9661Z" fill="#262442"/>
</svg>
