<svg width="72" height="91" viewBox="0 0 72 91" fill="none" xmlns="http://www.w3.org/2000/svg">
<path d="M24.6168 12.7175C32.7584 7.9058 36.8294 5.5 41.2993 5.5C45.7691 5.5 49.8401 7.9058 57.9816 12.7175L60.7355 14.3449C68.877 19.1565 72.948 21.5623 75.1829 25.525C77.4179 29.4877 77.4179 34.2993 77.4179 43.9228V47.1772C77.4179 56.8008 77.4179 61.6125 75.1829 65.575C72.948 69.5375 68.877 71.9434 60.7355 76.755L57.9816 78.3826C49.8401 83.1942 45.7691 85.6 41.2993 85.6C36.8294 85.6 32.7584 83.1942 24.6168 78.3826L21.8631 76.755C13.7215 71.9434 9.6507 69.5375 7.41568 65.575C5.18066 61.6125 5.18066 56.8008 5.18066 47.1772V43.9228C5.18066 34.2993 5.18066 29.4877 7.41568 25.525C9.6507 21.5623 13.7215 19.1565 21.8631 14.3449L24.6168 12.7175Z" stroke="#262442" stroke-width="9.93261"/>
<path d="M41.2991 57.7C47.7821 57.7 53.0376 52.2603 53.0376 45.55C53.0376 38.8398 47.7821 33.4 41.2991 33.4C34.8161 33.4 29.5605 38.8398 29.5605 45.55C29.5605 52.2603 34.8161 57.7 41.2991 57.7Z" stroke="#262442" stroke-width="7.22372"/>
</svg>
