<svg width="75" height="92" viewBox="0 0 75 92" fill="none" xmlns="http://www.w3.org/2000/svg">
<path d="M4.43457 38.1793C4.43457 22.3967 4.43457 14.5054 9.31881 9.60236C14.2031 4.69934 22.0641 4.69934 37.7863 4.69934H46.1243C61.8463 4.69934 69.7077 4.69934 74.5917 9.60236C79.476 14.5054 79.476 22.3967 79.476 38.1793V54.9193C79.476 70.7018 79.476 78.5935 74.5917 83.4962C69.7077 88.3993 61.8463 88.3993 46.1243 88.3993H37.7863C22.0641 88.3993 14.2031 88.3993 9.31881 83.4962C4.43457 78.5935 4.43457 70.7018 4.43457 54.9193V38.1793Z" stroke="#262442" stroke-width="7.44946"/>
<path d="M25.2803 46.5493H58.632" stroke="#262442" stroke-width="7.44946" stroke-linecap="round"/>
<path d="M25.2803 29.8097H58.632" stroke="#262442" stroke-width="7.44946" stroke-linecap="round"/>
<path d="M25.2803 63.2889H46.1251" stroke="#262442" stroke-width="7.44946" stroke-linecap="round"/>
</svg>
